<svg xmlns="http://www.w3.org/2000/svg" viewBox="0 0 800 600" width="800" height="600" role="img">
  <defs>
    <linearGradient id="bg" x1="0" y1="0" x2="1" y2="1">
      <stop offset="0" stop-color="#F1F6EF"/><stop offset="1" stop-color="#DCEBDB"/>
    </linearGradient>
    <radialGradient id="glow" cx="50%" cy="42%" r="55%">
      <stop offset="0" stop-color="#ffffff" stop-opacity=".55"/><stop offset="1" stop-color="#ffffff" stop-opacity="0"/>
    </radialGradient>
  </defs>
  <rect width="800" height="600" fill="url(#bg)"/>
  <g opacity=".14" fill="#7FA882">
    <ellipse cx="96" cy="512" rx="30" ry="24"/><ellipse cx="60" cy="470" rx="12" ry="16"/>
    <ellipse cx="84" cy="446" rx="12" ry="16"/><ellipse cx="110" cy="446" rx="12" ry="16"/><ellipse cx="134" cy="470" rx="12" ry="16"/>
  </g>
  <g opacity=".10" fill="#7FA882">
    <ellipse cx="712" cy="112" rx="24" ry="19"/><ellipse cx="684" cy="80" rx="10" ry="13"/>
    <ellipse cx="703" cy="60" rx="10" ry="13"/><ellipse cx="724" cy="60" rx="10" ry="13"/><ellipse cx="742" cy="80" rx="10" ry="13"/>
  </g>
  <rect width="800" height="600" fill="url(#glow)"/>

  <ellipse cx="400" cy="520" rx="200" ry="44" fill="#5D8461" opacity=".10"/>
  <path d="M262 236 254 118l104 62z" fill="#7FA882"/><path d="M538 236 546 118 442 180z" fill="#7FA882"/>
  <path d="M280 220 276 152l60 38z" fill="#EBD9A8"/><path d="M520 220 524 152l-60 38z" fill="#EBD9A8"/>
  <ellipse cx="400" cy="320" rx="168" ry="150" fill="#7FA882"/>
  <ellipse cx="400" cy="368" rx="86" ry="62" fill="#EBD9A8" opacity=".75"/>
  <path d="M400 350 382 372h36z" fill="#5D8461"/>
  <path d="M400 372v14m0 0c-10 14-30 14-40 4m40-4c10 14 30 14 40 4" stroke="#5D8461" stroke-width="8" fill="none" stroke-linecap="round"/>
  <g stroke="#5D8461" stroke-width="7" stroke-linecap="round" opacity=".7">
    <path d="M312 356 218 338M312 374l-96 16M488 356l94-18M488 374l96 16"/>
  </g>
  <path d="M318 292c14-22 44-22 58 0-14 22-44 22-58 0z" fill="#5D8461"/>
  <path d="M424 292c14-22 44-22 58 0-14 22-44 22-58 0z" fill="#5D8461"/>
  <circle cx="352" cy="292" r="7" fill="#fff"/><circle cx="458" cy="292" r="7" fill="#fff"/>

</svg>
