<svg xmlns="http://www.w3.org/2000/svg" viewBox="0 0 800 600" width="800" height="600" role="img">
  <defs>
    <linearGradient id="bg" x1="0" y1="0" x2="1" y2="1">
      <stop offset="0" stop-color="#F6F1F7"/><stop offset="1" stop-color="#E7DEEA"/>
    </linearGradient>
    <radialGradient id="glow" cx="50%" cy="42%" r="55%">
      <stop offset="0" stop-color="#ffffff" stop-opacity=".55"/><stop offset="1" stop-color="#ffffff" stop-opacity="0"/>
    </radialGradient>
  </defs>
  <rect width="800" height="600" fill="url(#bg)"/>
  <g opacity=".14" fill="#8C7093">
    <ellipse cx="96" cy="512" rx="30" ry="24"/><ellipse cx="60" cy="470" rx="12" ry="16"/>
    <ellipse cx="84" cy="446" rx="12" ry="16"/><ellipse cx="110" cy="446" rx="12" ry="16"/><ellipse cx="134" cy="470" rx="12" ry="16"/>
  </g>
  <g opacity=".10" fill="#8C7093">
    <ellipse cx="712" cy="112" rx="24" ry="19"/><ellipse cx="684" cy="80" rx="10" ry="13"/>
    <ellipse cx="703" cy="60" rx="10" ry="13"/><ellipse cx="724" cy="60" rx="10" ry="13"/><ellipse cx="742" cy="80" rx="10" ry="13"/>
  </g>
  <rect width="800" height="600" fill="url(#glow)"/>

  <ellipse cx="400" cy="522" rx="200" ry="42" fill="#6E5674" opacity=".10"/>
  <g fill="#6E5674"><ellipse cx="258" cy="452" rx="44" ry="26"/><ellipse cx="542" cy="452" rx="44" ry="26"/></g>
  <path d="M186 372c0-106 96-176 214-176s214 70 214 176z" fill="#8C7093"/>
  <path d="M186 372h428c0 40-96 66-214 66s-214-26-214-66z" fill="#6E5674"/>
  <g fill="#F0D8C4" opacity=".85">
    <path d="M400 214c46 0 70 28 70 54s-30 44-70 44-70-18-70-44 24-54 70-54z"/>
    <path d="M262 300c30-20 60-14 70 8 10 22-10 44-44 46-30 2-52-32-26-54z"/>
    <path d="M538 300c-30-20-60-14-70 8-10 22 10 44 44 46 30 2 52-32 26-54z"/>
  </g>
  <ellipse cx="400" cy="452" rx="56" ry="44" fill="#8C7093"/>
  <circle cx="378" cy="442" r="10" fill="#6E5674"/><circle cx="422" cy="442" r="10" fill="#6E5674"/>
  <path d="M382 474h36" stroke="#6E5674" stroke-width="7" stroke-linecap="round"/>

</svg>
